<?xml version="1.0" encoding="UTF-8"?>
<svg xmlns="http://www.w3.org/2000/svg" width="449" height="359" viewBox="159 181 449 359">
<path d="M510.7 539.0C504.4 537.9 500.0 535.2 497.5 531.0C494.7 526.1 495.1 516.5 498.8 501.5L501.7 489.5L493.8 489.2C487.9 489.0 485.8 488.5 485.3 487.4C484.6 485.5 487.8 472.7 489.3 471.8C490.0 471.4 494.1 471.0 498.5 471.0L506.5 471.0L508.3 463.0C509.3 458.6 510.5 454.8 511.0 454.5C511.4 454.2 515.3 453.3 519.6 452.5C530.4 450.4 530.9 451.0 528.3 462.1L526.3 470.5L542.7 471.0C554.4 471.4 559.3 471.9 559.9 472.8C560.3 473.5 561.4 482.7 562.4 493.2C564.0 511.2 564.4 514.0 565.4 512.9C565.6 512.7 570.9 503.5 577.2 492.5L588.6 472.5L598.0 472.5C606.8 472.5 607.5 472.7 607.7 474.5C607.8 475.6 599.7 489.9 589.2 507.0L570.4 537.5L559.7 537.8C549.3 538.1 548.9 538.0 548.1 535.8C547.4 533.9 545.8 522.5 542.1 494.5L541.5 489.5L531.8 489.2L522.1 488.9L521.1 492.7C518.9 500.9 516.0 514.2 516.0 516.0C516.0 518.8 519.9 521.0 524.8 521.0C527.7 521.0 529.2 521.5 529.6 522.5C530.4 524.5 527.9 536.8 526.5 538.0C524.8 539.4 516.0 539.9 510.7 539.0ZM164.6 428.4C163.2 427.0 163.0 420.7 163.0 373.6C163.0 333.6 163.3 320.1 164.2 319.2C166.1 317.3 191.9 317.6 194.7 319.5C195.9 320.3 201.8 329.7 207.9 340.3C213.9 350.8 219.5 360.3 220.2 361.3C221.4 362.8 222.9 360.6 233.8 341.5C240.6 329.7 247.0 319.5 248.0 319.0C250.5 317.7 274.6 317.7 277.1 319.0C278.9 320.0 279.0 321.7 279.0 374.4L279.0 428.8L275.9 429.4C271.9 430.2 251.7 430.2 249.6 429.4C248.2 428.9 248.0 425.6 248.0 402.9C248.0 388.7 247.7 377.0 247.2 377.0C246.8 377.0 241.4 385.5 235.2 395.9C223.8 415.1 221.9 417.7 220.1 416.5C219.5 416.2 213.7 407.1 207.3 396.3L195.5 376.6L195.2 402.1C195.0 424.6 194.8 427.6 193.3 428.8C190.6 430.7 166.6 430.5 164.6 428.4ZM421.2 427.8C420.3 426.9 420.0 413.4 420.0 373.4C420.0 327.7 420.2 320.1 421.5 319.0C422.6 318.1 429.5 317.9 449.7 318.2C475.3 318.6 476.8 318.8 483.1 321.2C492.5 324.7 498.2 328.3 504.5 334.6C514.9 345.1 520.7 361.6 519.7 378.0C518.8 391.2 514.7 401.0 505.6 411.5C499.5 418.6 492.4 423.2 482.7 426.5C475.4 428.9 474.3 429.0 448.8 429.0C429.6 429.0 422.1 428.7 421.2 427.8ZM532.5 427.8C532.2 427.1 532.1 402.4 532.2 373.0L532.5 319.5L568.0 319.5L603.5 319.5L603.5 333.5L603.5 347.5L583.8 347.8L564.0 348.0L564.0 353.5L564.0 359.0L580.5 359.0L597.0 359.0L598.0 361.6C599.5 365.4 599.3 384.3 597.8 386.3C596.7 387.7 594.1 388.0 580.5 388.2L564.5 388.5L564.2 394.2L563.9 400.0L582.4 400.0C592.5 400.0 601.5 400.3 602.4 400.6C603.8 401.1 604.0 403.4 604.0 415.1L604.0 429.0L568.5 429.0C541.0 429.0 532.8 428.7 532.5 427.8ZM475.6 395.9C489.8 389.2 492.3 365.8 480.0 354.6C475.2 350.2 472.7 349.5 462.5 349.5L454.5 349.5L454.2 373.8L454.0 398.0L462.5 398.0C469.1 398.0 472.0 397.5 475.6 395.9ZM242.6 290.4C241.2 289.0 241.0 282.8 241.0 236.5C241.0 207.7 241.3 183.5 241.6 182.6C242.5 180.2 271.5 180.2 272.4 182.6C272.7 183.5 273.0 207.7 273.0 236.5C273.0 282.8 272.8 289.0 271.4 290.4C270.2 291.7 267.4 292.0 257.0 292.0C246.6 292.0 243.8 291.7 242.6 290.4ZM315.6 289.8C313.8 287.0 282.0 186.2 282.0 183.2C282.0 181.0 282.2 181.0 298.4 181.0L314.8 181.0L315.8 183.8C316.4 185.3 320.6 200.6 325.2 217.9C330.9 239.6 333.7 248.7 334.2 247.4C334.6 246.3 338.1 233.1 342.0 218.0C345.8 202.9 349.6 188.5 350.3 186.0L351.6 181.5L368.0 181.2C377.0 181.1 384.7 181.3 385.2 181.8C385.7 182.3 384.5 187.6 382.5 193.6C380.6 199.6 372.9 223.8 365.3 247.5C357.7 271.1 351.1 290.8 350.5 291.2C350.0 291.6 342.2 292.0 333.3 292.0C317.5 292.0 317.0 291.9 315.6 289.8ZM163.6 289.4C162.7 287.0 162.9 183.7 163.8 182.2C164.5 181.3 168.3 181.0 179.6 181.2L194.5 181.5L194.8 221.2L195.0 261.0L212.8 261.2L230.5 261.5L230.5 276.0L230.5 290.5L197.4 290.8C167.8 291.0 164.2 290.9 163.6 289.4ZM394.5 289.8C394.2 289.1 394.1 264.4 394.2 235.0L394.5 181.5L430.0 181.5L465.5 181.5L465.8 194.4C466.0 203.0 465.7 207.7 464.9 208.6C464.0 209.7 459.8 210.0 444.9 210.0L426.0 210.0L426.0 215.5L426.0 221.0L441.9 221.0C454.2 221.0 458.0 221.3 458.9 222.4C459.7 223.3 460.0 228.0 459.8 236.6L459.5 249.5L442.8 249.8L426.0 250.0L426.0 256.0L426.0 262.0L444.9 262.0C459.8 262.0 464.0 262.3 464.9 263.4C465.7 264.3 466.0 269.0 465.8 277.6L465.5 290.5L430.2 290.8C402.5 291.0 394.8 290.8 394.5 289.8Z" fill="#FFFFFF" fill-rule="evenodd"/>
<path d="M159.9 510.6C158.7 508.1 160.2 501.1 165.5 483.4C169.5 470.3 163.5 471.5 226.4 471.5L280.5 471.5L280.8 473.8C281.1 475.9 278.1 486.6 271.7 506.0L269.5 512.5L215.2 512.8L161.0 513.0L159.9 510.6ZM334.5 430.2C301.3 421.7 282.6 385.2 295.0 353.0C303.5 331.1 322.8 317.6 347.5 316.3C365.4 315.3 378.2 320.2 390.8 332.7C403.5 345.2 408.0 356.3 408.0 374.7C408.0 391.3 403.0 403.2 391.1 415.0C380.5 425.5 368.5 430.4 350.8 431.4C343.7 431.8 339.8 431.5 334.5 430.2Z" fill="#24D71B" fill-rule="evenodd"/>
<path d="M272.0 512.0C272.0 510.9 274.1 503.3 276.6 495.2C279.1 487.1 281.7 478.5 282.4 476.0L283.6 471.5L374.5 471.2C473.1 471.0 470.0 470.8 470.0 476.3C470.0 480.2 462.2 506.8 460.3 509.4C459.3 510.8 456.9 512.4 455.0 513.0C452.8 513.6 419.3 514.0 361.8 514.0C272.5 514.0 272.0 514.0 272.0 512.0Z" fill="#DF1629" fill-rule="evenodd"/>
</svg>