<?xml version="1.0" encoding="UTF-8" standalone="no"?>
<svg xmlns="http://www.w3.org/2000/svg" width="200.00003" height="200" viewBox="0 0 200.00003 200" fill="none" version="1.1">
<path d="M 100,0 C 44.78125,0 0,44.780312 0,100 0,155.21969 44.78125,200 100,200 155.21873,200 200.00003,155.21969 200.00003,100 200.00003,44.780312 155.21873,0 100,0 Z" fill="#fdea00" id="path877" style="stroke-width:3.125" />
<path d="M 57.575,159.57937 V 141.11969 L 100.44688,97.00781 C 109.99375,86.950625 114.8,78.611875 114.8,71.89625 114.8,66.995 113.27188,63.048438 110.21875,60.056875 107.16251,57.065 103.24688,55.569062 98.475,55.569062 c -9.45312,0 -16.45625,4.901563 -20.97499,14.704063 L 56.68438,58.083438 C 60.63125,49.490313 66.29688,42.902187 73.71251,38.350937 81.12813,33.799687 89.24375,31.54 98.09063,31.54 c 11.3625,0 21.10312,3.564375 29.2187,10.661875 8.1157,7.129375 12.1907,16.709063 12.1907,28.771563 0,13.017187 -6.875,26.384372 -20.59377,40.101872 l -24.63438,24.63406 h 47.20005 V 159.5475 H 57.54375 Z" fill="#000000" id="path879" style="stroke-width:3.125" />
</svg>
