<?xml version="1.0" encoding="UTF-8" standalone="no"?>
<svg xmlns="http://www.w3.org/2000/svg" width="200" height="200" viewBox="0 0 200 200" fill="none" version="1.1">
<path d="m 100,0 c -55.21875,0 -100,44.780312 -100,100 0,55.21969 44.78125,100 100,100 55.21873,0 100.00003,-44.78031 100.00003,-100 0,-55.219688 -44.7813,-100 -100.00003,-100 z" fill="#fdea00" id="path1444" style="stroke-width:3.125"/>
<path d="m 86.69688,60.025625 -2.83125,23.329062 0.50937,-0.318124 c 0.44375,-0.318438 1.17813,-0.763751 2.1625,-1.241251 1.01876,-0.509374 2.16563,-0.986562 3.50313,-1.495937 1.33438,-0.509063 3.15,-0.954687 5.40937,-1.336563 2.29063,-0.381874 4.74063,-0.573124 7.41563,-0.573124 7.44688,0 14.00313,1.336874 19.6688,4.010312 5.6656,2.673438 10.0249,6.174375 13.0812,10.502813 3.0562,4.328437 5.3156,8.784067 6.7469,13.335317 1.4312,4.55124 2.1656,9.16625 2.1656,13.84468 0,11.99875 -4.2656,22.24719 -12.7625,30.77688 -8.5,8.4975 -18.80937,12.7625 -30.9375,12.7625 -12.125,0 -22.53125,-4.10563 -30.93438,-12.34875 -8.40312,-8.21156 -12.60312,-18.61875 -12.60312,-31.19063 h 21.00313 c 0,5.7925 2.22812,10.98031 6.68437,15.59531 4.45625,4.615 9.74062,6.90657 15.85,6.90657 6.1125,0 11.7125,-2.16438 16.10625,-6.49282 4.39062,-4.32843 6.58745,-9.73906 6.58745,-16.16812 0,-6.11062 -2.13433,-11.29844 -6.4312,-15.595 -4.29375,-4.29656 -9.54688,-6.42906 -15.75313,-6.42906 -2.89687,0 -5.53749,0.31812 -7.925,0.92281 -2.3875,0.605 -4.26562,1.36875 -5.66562,2.25969 -1.4,0.89125 -2.57813,1.81437 -3.59375,2.73719 -1.01875,0.95499 -1.65625,1.68687 -2.00625,2.25968 l -0.50937,0.98657 -22.025,-1.33657 9.32499,-66.677185 h 64.86253 V 60.0575 H 73.30313 Z" fill="#000000" id="path1446" style="stroke-width:3.125"/>
</svg>
